<?xml version="1.0" encoding="utf-8"?>
<!-- Generator: Adobe Illustrator 21.0.0, SVG Export Plug-In . SVG Version: 6.00 Build 0)  -->
<svg version="1.1" id="Layer_1" xmlns="http://www.w3.org/2000/svg" xmlns:xlink="http://www.w3.org/1999/xlink" x="0px" y="0px"
	 viewBox="0 0 465 130.8" style="enable-background:new 0 0 465 130.8;" xml:space="preserve">
<style type="text/css">
	.st0{fill:#8d8457;}
</style>
<g>
	<polygon class="st0" points="0,119.7 21.8,114.1 25.3,15.8 4,11.4 4.2,2.7 53.2,2.7 88.9,101.2 123.4,2.7 171.4,2.7 171.6,11.4 
		150.3,15.8 153.8,114.1 175.6,119.7 175.6,128.4 115.7,128.4 115.7,119.7 134.2,117.6 130.9,19.8 90.8,128.4 78.6,128.4 39.5,19.8 
		36.1,117.6 54.6,119.7 54.6,128.4 0,128.4 	"/>
	<path class="st0" d="M221.7,84.6c-13.3,2.4-33.9,10.2-33.9,18.3c0,10.7,4.5,13.8,14.3,13.8c8.3,0,14.6-2.6,19.6-6V84.6z
		 M202.7,52.1c-5.7,0-12.3,1.5-17.2,3.1c3.6,3.7,6.5,9.3,6.5,14c0,4.9-3.2,8.6-8.1,8.6c-5.7,0-11.8-5.2-11.8-12
		c0-12.3,21.6-25.2,42.5-25.2c14,0,22.7,11,22.7,34.7c0,23.7,0.3,33.4,0.3,37.2c0,5.5,10.1,4.4,13.8,0.7l3.4,3.9
		c-7.8,9.1-15.9,13.3-22.7,13.3c-5.8,0-9.9-2.9-10.4-11.4c-8.1,5.4-21.7,11.8-29.9,11.8c-11.2,0-21.6-7.3-21.6-21.3
		c0-22.2,28.6-27.1,51.3-31.8C220.3,54.6,211.7,52.1,202.7,52.1"/>
	<path class="st0" d="M258.2,18c0.5-6.5,6-12.7,12.3-12.3c6.5,0.3,11.2,6.2,10.7,12.7c-0.5,6.5-6,12.7-12.3,12.3
		C262.5,30.4,257.8,24.5,258.2,18 M248.8,122.1l14.4-3.7V61.9L247.2,52v-4.5l29-5.4l2.8,1.6v75.1l16.1,3.2v6.3h-46.3V122.1z"/>
	<path class="st0" d="M356.1,41.3c14.8,0,22.4,11.5,22.4,39.3v37.8l13.6,3.7v6.3h-43v-6.3l13.6-1.6V94c0-34.1-3.7-38.1-21.8-38.1
		c-7.8,0-15.7,3.4-20.4,6.2v58.4l14.4,1.6v6.3h-43.8v-6.3l13.6-3.7V61.9L289.6,52v-4.5l28.2-5.4l2.8,1.6l-1.3,11
		C332.4,45.8,346,41.3,356.1,41.3"/>
	<path class="st0" d="M445.7,73.7c-0.2-19.6-8.9-25.2-18.8-25.2c-8.8,0-18.8,4.5-21.1,26.3L445.7,73.7z M405.3,84.6
		c0,30.3,22.2,33.3,32.8,33.3c5.5,0,14.3-4.9,21.7-10.5l5.2,5.5c-8.1,7.8-21.7,18.2-38.8,18.2c-14.4,0-39.3-7.5-39.3-44.1
		c0-36,27.8-46.7,42.4-46.7c25,0,35.5,17.7,34.6,43.8l-58.6-0.6V84.6z"/>
</g>
</svg>
